<?xml version="1.0" encoding="UTF-8" standalone="no"?>
<!-- Created with Inkscape (http://www.inkscape.org/) -->

<svg
   version="1.1"
   id="svg2"
   width="2693.3333"
   height="1573.3333"
   viewBox="0 0 2693.3333 1573.3333"
   sodipodi:docname="COMING SOON-DIGALLERY.ai"
   xmlns:inkscape="http://www.inkscape.org/namespaces/inkscape"
   xmlns:sodipodi="http://sodipodi.sourceforge.net/DTD/sodipodi-0.dtd"
   xmlns="http://www.w3.org/2000/svg"
   xmlns:svg="http://www.w3.org/2000/svg">
  <defs
     id="defs6">
    <clipPath
       clipPathUnits="userSpaceOnUse"
       id="clipPath16">
      <path
         d="M 0,1180 H 2020 V 0 H 0 Z"
         id="path14" />
    </clipPath>
  </defs>
  <sodipodi:namedview
     id="namedview4"
     pagecolor="#ffffff"
     bordercolor="#000000"
     borderopacity="0.25"
     inkscape:showpageshadow="2"
     inkscape:pageopacity="0.0"
     inkscape:pagecheckerboard="0"
     inkscape:deskcolor="#d1d1d1" />
  <g
     id="g8"
     inkscape:groupmode="layer"
     inkscape:label="COMING SOON-DIGALLERY"
     transform="matrix(1.3333333,0,0,-1.3333333,0,1573.3333)">
    <g
       id="g10">
      <g
         id="g12"
         clip-path="url(#clipPath16)">
        <g
           id="g18"
           transform="translate(837.0933,643.8434)">
          <path
             d="m 0,0 c 0.013,0.105 0.106,0.38 0.281,0.821 0.173,0.443 0.363,0.901 0.565,1.375 0.263,0.576 0.556,1.218 0.884,1.927 0.268,0.25 0.723,0.649 1.359,1.194 0.639,0.544 1.347,1.081 2.124,1.608 0.778,0.526 1.592,0.978 2.446,1.352 0.853,0.375 1.654,0.515 2.4,0.42 0.513,-0.063 0.959,-0.3 1.334,-0.704 C 11.767,7.588 12.065,7.13 12.287,6.62 12.506,6.111 12.66,5.626 12.743,5.169 12.828,4.712 12.859,4.396 12.836,4.219 L 12.859,2.716 C 12.829,2.469 12.69,2.219 12.445,1.965 12.2,1.708 12.059,1.442 12.024,1.161 11.574,0.609 11.086,0.028 10.558,-0.584 10.029,-1.195 9.596,-1.732 9.253,-2.186 9.073,-2.486 8.637,-2.752 7.944,-2.985 7.25,-3.22 6.535,-3.433 5.799,-3.627 4.92,-3.838 3.946,-4.036 2.88,-4.223 2.366,-4.158 1.961,-3.983 1.667,-3.695 1.37,-3.407 1.126,-3.09 0.934,-2.744 0.739,-2.398 0.558,-2.053 0.388,-1.71 c -0.17,0.343 -0.341,0.58 -0.515,0.708 z m -2.804,0.195 c 0.085,-0.13 0.153,-0.23 0.206,-0.295 0.052,-0.067 0.072,-0.143 0.062,-0.231 l 0.165,-3.018 c -0.057,-0.439 -0.002,-0.885 0.165,-1.338 0.163,-0.455 0.414,-0.874 0.751,-1.259 0.334,-0.385 0.749,-0.713 1.24,-0.984 0.491,-0.27 1.056,-0.446 1.693,-0.528 0.755,-0.095 1.406,-0.071 1.95,0.068 0.543,0.14 1.384,0.39 2.523,0.755 0.493,0.056 0.972,0.183 1.442,0.376 0.47,0.193 0.933,0.419 1.39,0.674 0.456,0.255 0.873,0.508 1.249,0.759 0.375,0.25 0.696,0.463 0.961,0.64 0.714,0.536 1.199,1.086 1.452,1.65 0.251,0.563 0.689,1.061 1.31,1.489 0.936,0.687 1.725,1.497 2.37,2.429 0.642,0.933 1.017,1.81 1.12,2.631 l 0.626,0.636 c 0.18,0.455 0.329,0.833 0.447,1.129 0.12,0.298 0.245,0.573 0.378,0.824 0.131,0.252 0.258,0.526 0.378,0.824 0.116,0.298 0.266,0.675 0.446,1.131 0.063,0.198 0.143,0.42 0.235,0.663 0.09,0.241 0.19,0.474 0.299,0.699 0.114,0.255 0.207,0.511 0.28,0.769 0.03,0.235 0.103,0.42 0.222,0.555 0.118,0.133 0.184,0.26 0.199,0.376 -0.073,0.068 -0.041,0.155 0.094,0.257 0.133,0.103 0.248,0.208 0.343,0.314 l 0.308,1.482 c 0.061,0.17 0.18,0.462 0.353,0.873 0.173,0.409 0.353,0.872 0.539,1.383 0.187,0.515 0.352,1.036 0.501,1.571 0.149,0.533 0.248,1.004 0.3,1.415 l 0.207,0.198 c 0.696,0.062 1.328,0.025 1.898,-0.105 0.569,-0.133 1.115,-0.066 1.633,0.195 0.022,0.177 0.14,0.386 0.353,0.626 0.212,0.242 0.433,0.483 0.666,0.721 0.232,0.24 0.455,0.465 0.663,0.678 0.208,0.211 0.318,0.361 0.33,0.449 0.015,0.117 -0.085,0.287 -0.3,0.508 -0.215,0.22 -0.348,0.453 -0.398,0.698 -0.514,0.095 -0.894,0.128 -1.141,0.1 -0.246,-0.028 -0.707,0 -1.383,0.085 -0.24,0.03 -0.453,0.026 -0.64,-0.009 -0.184,-0.036 -0.426,-0.094 -0.719,-0.178 l 0.09,0.706 c 0.47,1.49 0.689,2.744 0.656,3.762 -0.033,1.019 -0.078,1.948 -0.133,2.79 l -0.38,2.283 c 0.18,0.783 0.135,1.377 -0.138,1.785 -0.273,0.408 -0.516,0.713 -0.733,0.921 -0.181,0.17 -0.326,0.376 -0.438,0.613 -0.113,0.238 -0.213,0.481 -0.303,0.733 -0.088,0.248 -0.199,0.494 -0.331,0.734 -0.132,0.241 -0.328,0.451 -0.588,0.633 -0.078,0.009 -0.208,0.116 -0.383,0.317 -0.178,0.202 -0.363,0.344 -0.554,0.427 -0.08,0.01 -0.185,0.06 -0.313,0.153 -0.132,0.09 -0.297,0.148 -0.495,0.173 -0.176,0.202 -0.529,0.455 -1.057,0.76 -0.528,0.304 -1.098,0.601 -1.709,0.887 -0.686,0.325 -1.453,0.659 -2.299,1.006 -0.836,0.105 -1.603,0.038 -2.301,-0.202 L 12.255,41.122 C 11.759,40.72 11.759,40.72 11.572,40.429 11.284,39.978 11.116,39.41 11.113,39.053 c -0.057,-0.441 0.145,-0.732 0.516,-1.152 0.373,-0.419 0.819,-0.796 1.344,-1.131 0.556,-0.397 1.215,-0.779 1.978,-1.143 0.213,-0.237 0.476,-0.39 0.792,-0.458 0.315,-0.07 0.692,-0.132 1.129,-0.188 0.318,-0.04 0.668,-0.159 1.048,-0.357 0.379,-0.196 0.716,-0.403 1.014,-0.619 0.613,-0.585 1.155,-1.241 1.631,-1.973 0.473,-0.73 0.68,-1.659 0.62,-2.785 -0.023,-0.176 -0.032,-0.494 -0.03,-0.957 0.002,-0.463 0.01,-0.956 0.025,-1.478 0.015,-0.523 0.023,-1.018 0.025,-1.479 0.003,-0.463 0.012,-0.784 0.03,-0.966 l -1.67,-1.998 C 19.307,22.253 19.002,22.156 18.649,22.083 18.294,22.008 17.956,21.96 17.63,21.943 17.217,21.876 16.829,21.849 16.468,21.866 16.051,21.77 15.727,21.698 15.5,21.653 c -0.229,-0.046 -0.413,-0.068 -0.554,-0.065 -0.142,0.003 -0.28,0.027 -0.415,0.075 -0.136,0.047 -0.321,0.1 -0.556,0.16 C 13.387,21.658 12.85,21.563 12.36,21.535 11.87,21.508 11.393,21.485 10.926,21.47 10.458,21.455 10.03,21.427 9.642,21.387 9.251,21.347 8.901,21.212 8.588,20.982 8.059,20.632 7.589,20.266 7.176,19.886 6.763,19.505 6.545,19.214 6.52,19.007 6.497,18.832 6.599,18.678 6.825,18.544 c 0.183,-0.108 0.636,-0.113 0.703,-0.193 0.03,-0.036 0.085,-0.038 0.13,-0.027 0.766,0.227 1.045,0.19 1.861,0.17 0.866,-0.02 1.479,-0.053 1.839,-0.098 1.143,0.093 2.184,0.172 3.123,0.233 0.815,0.045 1.569,0.092 2.263,0.138 0.693,0.047 1.099,0.062 1.219,0.047 0.176,0.127 0.36,0.208 0.546,0.245 0.187,0.035 0.403,0.068 0.65,0.096 -0.074,-0.259 -0.183,-0.656 -0.332,-1.187 -0.15,-0.533 -0.313,-1.109 -0.491,-1.728 -0.18,-0.618 -0.371,-1.264 -0.579,-1.938 -0.207,-0.675 -0.405,-1.284 -0.595,-1.825 -0.143,-0.49 -0.366,-0.893 -0.669,-1.213 -0.303,-0.321 -0.508,-0.579 -0.613,-0.774 -0.062,0.158 -0.118,0.352 -0.17,0.581 -0.051,0.232 -0.125,0.448 -0.22,0.655 -0.095,0.205 -0.216,0.384 -0.358,0.536 -0.143,0.153 -0.313,0.241 -0.511,0.266 -0.536,0.247 -1.21,0.437 -2.021,0.57 -0.814,0.131 -1.499,0.233 -2.055,0.303 C 9.709,13.507 8.951,13.364 8.275,12.973 7.598,12.582 6.815,12.217 5.924,11.882 5.458,11.732 4.752,11.263 3.803,10.475 2.854,9.684 1.898,8.762 0.936,7.705 -0.027,6.649 -0.893,5.558 -1.662,4.434 -2.431,3.309 -2.869,2.319 -2.977,1.469 -3.021,1.117 -3.024,0.849 -2.987,0.664 -2.949,0.481 -2.889,0.325 -2.804,0.195"
             style="fill:#211915;fill-opacity:1;fill-rule:nonzero;stroke:none"
             id="path20" />
        </g>
        <g
           id="g22"
           transform="translate(868.3903,624.5112)">
          <path
             d="m 0,0 c 2.754,1.58 5.69,2.979 8.807,4.198 3.112,1.217 6.206,2.188 9.274,2.912 3.069,0.723 5.872,1.084 8.399,1.084 5.328,0 8.963,-0.791 10.905,-2.369 1.941,-1.581 2.912,-3.727 2.912,-6.435 0,-2.078 -0.609,-4.042 -1.826,-5.894 -1.223,-1.852 -2.893,-3.475 -5.016,-4.874 -2.123,-1.402 -4.625,-2.506 -7.513,-3.32 -2.894,-0.812 -6.009,-1.219 -9.349,-1.219 -5.059,0 -9.46,0.901 -13.205,2.708 -3.749,1.808 -7.204,4.605 -10.363,8.398 C -5.077,-3.184 -2.754,-1.58 0,0 m 22.078,-37.928 c 0.857,1.58 1.29,2.961 1.29,4.135 0,0.99 -1.404,1.49 -4.201,1.49 -2.438,0 -4.469,-0.363 -6.096,-1.086 -1.623,-0.723 -3.002,-1.741 -4.129,-3.049 -1.134,-1.308 -2.124,-2.822 -2.979,-4.535 -0.863,-1.717 -1.785,-3.569 -2.779,-5.553 -0.815,-1.717 -2.08,-3.412 -3.793,-5.082 -1.717,-1.67 -3.635,-3.182 -5.757,-4.534 -2.123,-1.356 -4.312,-2.441 -6.567,-3.254 -2.26,-0.811 -4.336,-1.219 -6.232,-1.219 -2.257,0 -4.178,0.408 -5.758,1.219 -1.58,0.813 -2.864,1.898 -3.86,3.254 -0.994,1.352 -1.693,2.955 -2.098,4.805 -0.405,1.852 -0.609,3.816 -0.609,5.891 0,3.793 0.676,7.608 2.033,11.448 1.35,3.836 3.158,7.494 5.415,10.973 2.259,3.473 4.787,6.703 7.587,9.682 2.798,2.979 5.597,5.554 8.394,7.72 3.973,-4.697 8.356,-7.991 13.143,-9.887 4.782,-1.895 10.292,-2.843 16.524,-2.843 2.347,0 5.097,0.223 8.261,0.676 3.16,0.451 6.163,1.266 9.008,2.436 2.844,1.176 5.234,2.779 7.18,4.811 1.942,2.031 2.912,4.625 2.912,7.789 0,4.334 -1.874,7.495 -5.624,9.478 -3.745,1.99 -9.099,2.984 -16.05,2.984 -3.069,0 -6.276,-0.272 -9.616,-0.815 C 14.337,8.464 11.04,7.766 7.789,6.908 4.539,6.048 1.422,5.03 -1.557,3.858 -4.536,2.684 -7.246,1.465 -9.682,0.205 c -0.453,0.989 -0.748,2.098 -0.881,3.317 -0.139,1.217 -0.205,2.411 -0.205,3.588 0,2.616 0.814,5.057 2.441,7.313 1.623,2.26 3.698,3.701 6.229,4.334 v 0.375 c 0.097,0.058 0.156,0.111 0.175,0.153 0.095,0.218 0.166,0.415 0.213,0.59 0.047,0.174 -0.003,0.294 -0.153,0.359 l -0.705,0.313 c -0.173,0.077 -0.349,0.097 -0.526,0.062 -0.18,-0.037 -0.359,-0.095 -0.543,-0.177 -0.17,-0.118 -0.364,-0.211 -0.586,-0.278 -0.22,-0.065 -0.429,-0.053 -0.627,0.033 -0.174,0.077 -0.302,0.209 -0.383,0.39 -0.084,0.183 -0.137,0.385 -0.157,0.606 -0.022,0.222 -0.02,0.432 0.01,0.631 0.027,0.2 0.065,0.353 0.112,0.463 0.131,0.3 0.303,0.541 0.516,0.725 0.211,0.183 0.389,0.373 0.534,0.569 0.23,0.256 0.43,0.461 0.6,0.613 0.17,0.153 0.321,0.379 0.451,0.681 l 0.197,0.449 c 0.144,0.197 0.283,0.38 0.416,0.55 0.12,0.141 0.231,0.295 0.335,0.463 0.101,0.165 0.181,0.316 0.241,0.453 l 0.143,0.328 c 0.25,0.573 0.531,1.067 0.844,1.482 0.315,0.414 0.59,0.895 0.828,1.442 0.071,0.163 0.123,0.318 0.16,0.466 0.08,0.321 0.081,0.598 0.005,0.828 l 0.834,0.998 c 0.166,0.382 0.188,0.805 0.065,1.266 -0.125,0.461 -0.396,0.786 -0.818,0.971 -0.148,0.065 -0.563,0.028 -1.244,-0.11 -0.679,-0.138 -1.402,-0.323 -2.168,-0.555 -0.764,-0.231 -1.468,-0.491 -2.109,-0.776 -0.641,-0.288 -1.014,-0.552 -1.121,-0.799 l -0.286,-0.654 c -0.107,-0.247 -0.147,-0.473 -0.12,-0.681 0.002,-0.13 0.021,-0.222 0.06,-0.27 0.521,-0.23 0.859,-0.315 1.017,-0.255 0.16,0.06 0.313,0.057 0.461,-0.008 0.372,-0.165 0.582,-0.411 0.63,-0.743 0.046,-0.329 0.025,-0.604 -0.07,-0.822 C -4.999,28.586 -5.205,28.263 -5.49,27.917 -5.773,27.571 -6.068,27.219 -6.369,26.865 -6.67,26.512 -6.955,26.18 -7.22,25.875 -7.488,25.569 -7.663,25.321 -7.744,25.13 L -7.906,24.762 C -8.072,24.379 -8.257,24.087 -8.464,23.886 -8.67,23.684 -8.862,23.378 -9.042,22.968 l -0.837,-1.925 -0.796,-1.014 -0.34,-0.779 c 0.148,-0.066 0.2,-0.185 0.154,-0.36 -0.047,-0.174 -0.119,-0.371 -0.214,-0.589 l -0.284,-0.656 c -0.095,-0.218 -0.135,-0.461 -0.119,-0.728 0.015,-0.268 0.065,-0.542 0.15,-0.824 0.085,-0.281 0.205,-0.529 0.363,-0.746 0.155,-0.216 0.32,-0.361 0.495,-0.438 0.246,-0.11 0.618,-0.055 1.112,0.167 0.01,0.005 0.02,0.01 0.028,0.015 -0.09,-0.115 -0.198,-0.208 -0.286,-0.327 -1.852,-2.487 -2.774,-5.443 -2.774,-8.873 0,-1.355 0.11,-2.484 0.338,-3.389 0.223,-0.899 0.471,-1.849 0.743,-2.84 -4.065,-2.26 -8.104,-4.877 -12.121,-7.856 -4.019,-2.982 -7.654,-6.299 -10.906,-9.959 -3.249,-3.655 -5.89,-7.675 -7.921,-12.052 -2.033,-4.383 -3.05,-9.098 -3.05,-14.157 0,-5.779 1.626,-10.477 4.877,-14.083 3.25,-3.615 7.856,-5.42 13.817,-5.42 2.527,0 5.03,0.338 7.514,1.014 2.483,0.681 4.876,1.56 7.18,2.644 2.303,1.082 4.516,2.346 6.637,3.793 2.123,1.442 4.083,2.979 5.891,4.602 l 0.272,-0.268 c -2.256,-3.433 -4.721,-7.269 -7.382,-11.514 -2.664,-4.244 -5.619,-8.217 -8.873,-11.919 -3.25,-3.706 -6.862,-6.795 -10.835,-9.279 -3.973,-2.483 -8.397,-3.725 -13.274,-3.725 -1.985,0 -3.906,0.113 -5.753,0.338 -1.857,0.223 -3.503,0.699 -4.949,1.422 -1.442,0.724 -2.594,1.785 -3.45,3.184 -0.86,1.398 -1.288,3.273 -1.288,5.624 0,0.718 0.066,1.394 0.203,2.027 0.135,0.633 0.248,1.265 0.338,1.898 3.25,0.724 4.878,2.528 4.878,5.42 0,2.526 -0.724,4.288 -2.171,5.282 -1.44,0.989 -3.025,1.488 -4.739,1.488 -3.068,0 -5.261,-1.13 -6.57,-3.387 -1.309,-2.256 -1.962,-4.83 -1.962,-7.717 0,-3.164 0.743,-5.848 2.233,-8.061 1.489,-2.213 3.387,-3.996 5.69,-5.348 2.303,-1.356 4.897,-2.327 7.789,-2.913 2.889,-0.589 5.687,-0.881 8.399,-0.881 5.054,0 9.797,0.677 14.222,2.032 4.42,1.352 8.508,3.114 12.256,5.282 3.745,2.166 7.18,4.649 10.294,7.448 3.116,2.797 5.848,5.643 8.193,8.535 2.351,2.889 4.359,5.735 6.029,8.532 1.67,2.799 2.912,5.282 3.725,7.451 0.363,0.991 1.062,2.19 2.099,3.588 1.038,1.399 2.098,2.911 3.184,4.538 1.084,1.625 2.055,3.227 2.911,4.807"
             style="fill:#211915;fill-opacity:1;fill-rule:nonzero;stroke:none"
             id="path24" />
        </g>
        <g
           id="g26"
           transform="translate(1051.2404,574.9354)">
          <path
             d="m 0,0 c 2.303,2.756 4.762,5.082 7.385,6.975 2.617,1.898 5.053,2.846 7.313,2.846 1.085,0 1.965,-0.272 2.641,-0.813 0.674,-0.543 1.017,-1.447 1.017,-2.709 0,-2.17 -0.769,-4.447 -2.301,-6.842 -1.537,-2.393 -3.593,-4.649 -6.168,-6.77 -2.569,-2.123 -5.529,-4.022 -8.87,-5.692 -3.34,-1.67 -6.865,-2.864 -10.561,-3.586 0.537,2.254 1.688,4.895 3.448,7.921 C -4.331,-5.643 -2.299,-2.754 0,0 m -126.774,-20.451 c -1.765,-2.756 -3.615,-5.262 -5.557,-7.518 -1.941,-2.259 -3.949,-4.129 -6.024,-5.62 -2.08,-1.493 -4.065,-2.282 -5.963,-2.374 -2.797,0 -4.629,0.971 -5.485,2.912 -0.857,1.942 -1.285,4.221 -1.285,6.842 0,1.805 0.358,3.95 1.084,6.434 0.719,2.483 1.713,5.08 2.979,7.789 1.262,2.708 2.775,5.349 4.535,7.923 1.761,2.573 3.612,4.895 5.557,6.975 1.938,2.08 3.969,3.745 6.096,5.011 2.118,1.265 4.216,1.898 6.295,1.898 2.616,0 4.378,-0.676 5.281,-2.032 0.904,-1.355 1.357,-3.25 1.357,-5.691 0,-1.713 -0.387,-3.815 -1.151,-6.296 -0.767,-2.488 -1.808,-5.128 -3.117,-7.926 -1.309,-2.797 -2.842,-5.576 -4.602,-8.327 m 291.008,18.353 c -2.712,-3.793 -5.758,-7.676 -9.144,-11.649 -3.386,-3.977 -7.044,-7.723 -10.973,-11.243 -3.927,-3.522 -8.013,-6.614 -12.259,-9.28 -4.243,-2.664 -8.53,-4.624 -12.864,-5.889 4.961,8.217 9.73,16.501 14.287,24.852 4.56,8.355 9.279,16.729 14.157,25.128 L 134.162,9.278 c -0.722,-1.717 -1.851,-3.925 -3.388,-6.637 -1.537,-2.708 -3.295,-5.687 -5.282,-8.937 -2.346,-3.886 -4.967,-7.654 -7.856,-11.309 -2.887,-3.66 -5.758,-6.89 -8.598,-9.688 -2.846,-2.799 -5.533,-5.035 -8.059,-6.704 -2.531,-1.67 -4.606,-2.504 -6.234,-2.504 -0.993,0 -1.827,0.338 -2.503,1.014 -0.679,0.676 -1.018,1.557 -1.018,2.641 0,2.889 2.123,7.764 6.366,14.628 4.244,6.86 10.159,16.21 17.745,28.039 L 100.979,9.278 C 98.538,5.125 96.102,1.104 93.666,-2.774 c -1.579,-2.513 -3.014,-4.907 -4.383,-7.248 -1.051,-0.397 -2.12,-0.608 -3.204,-0.608 -3.883,0 -5.823,1.936 -5.823,5.824 0,3.069 0.723,5.933 2.165,8.599 1.447,2.664 3.026,5.215 4.744,7.655 C 84.634,11.353 82.534,11.263 80.864,11.176 79.196,11.083 77.772,10.881 76.598,10.568 75.423,10.249 74.408,9.797 73.553,9.211 72.69,8.622 71.768,7.833 70.774,6.842 70.141,6.209 69.15,5.463 67.795,4.606 66.438,3.746 64.768,2.508 62.784,0.881 60.796,-0.743 58.469,-2.844 55.809,-5.415 53.144,-7.989 50.095,-11.401 46.663,-15.645 L 46.392,-15.374 64.275,9.821 48.833,9.278 C 44.137,1.151 39.417,-6.837 34.678,-14.695 c -0.73,-1.208 -1.447,-2.426 -2.173,-3.638 -1.448,-1.475 -2.904,-2.937 -4.398,-4.354 -4.607,-4.336 -9.19,-7.631 -13.747,-9.888 -4.563,-2.259 -8.737,-3.388 -12.528,-3.388 -3.883,0 -6.911,1.222 -9.08,3.66 -2.163,2.436 -3.249,5.595 -3.249,9.483 0,1.442 0.223,3.065 0.679,4.872 1.624,0.361 3.702,0.814 6.23,1.357 2.526,0.541 5.235,1.217 8.127,2.031 2.889,0.813 5.801,1.76 8.737,2.844 2.934,1.086 5.575,2.348 7.921,3.793 2.351,1.442 4.269,3.069 5.758,4.877 1.49,1.804 2.236,3.794 2.236,5.958 0,2.711 -1.084,4.81 -3.25,6.299 -2.17,1.49 -5.196,2.237 -9.078,2.237 -4.245,0 -8.736,-1.041 -13.476,-3.118 -4.739,-2.078 -9.098,-4.785 -13.069,-8.125 -3.974,-3.341 -7.272,-7.137 -9.89,-11.378 -1.656,-2.684 -2.784,-5.387 -3.391,-8.104 -1.97,-2.155 -3.948,-4.256 -5.948,-6.256 -3.707,-3.701 -7.182,-6.59 -10.43,-8.668 -3.251,-2.077 -5.825,-3.114 -7.723,-3.114 -1.988,0 -2.979,1.219 -2.979,3.656 0,2.35 1.038,5.395 3.115,9.144 2.075,3.746 4.874,8.465 8.399,14.156 L 3.325,56.28 -11.711,55.466 -49.502,-6.567 c -1.978,-3.314 -3.688,-6.276 -5.14,-8.897 -3.082,-3.54 -6.196,-6.912 -9.353,-10.069 -3.705,-3.701 -7.18,-6.59 -10.428,-8.668 -3.251,-2.077 -5.825,-3.114 -7.723,-3.114 -1.988,0 -2.979,1.219 -2.979,3.656 0,2.35 1.037,5.395 3.117,9.144 2.075,3.746 4.872,8.465 8.397,14.156 L -31.757,56.28 -46.794,55.466 -84.582,-6.567 c -2.247,-3.76 -4.141,-7.06 -5.708,-9.929 -0.423,-0.483 -0.838,-0.964 -1.269,-1.452 -1.76,-1.985 -3.502,-3.835 -5.215,-5.553 -4.063,-4.153 -7.946,-7.493 -11.647,-10.021 -3.707,-2.531 -6.639,-3.793 -8.807,-3.793 -2.256,0 -3.384,1.129 -3.384,3.385 0,1.627 0.471,3.592 1.422,5.894 0.948,2.303 2.185,4.783 3.722,7.447 1.537,2.664 3.23,5.42 5.082,8.266 1.85,2.845 3.678,5.594 5.484,8.26 1.806,2.664 3.476,5.147 5.012,7.451 1.537,2.302 2.708,4.268 3.522,5.89 l -14.085,-0.813 -3.388,-5.415 c -1.174,2.888 -2.664,5.011 -4.468,6.366 -1.808,1.352 -4.291,2.032 -7.451,2.032 -4.155,0 -8.512,-1.109 -13.071,-3.321 -4.563,-2.213 -8.694,-5.102 -12.395,-8.67 -3.702,-3.568 -6.771,-7.561 -9.208,-11.985 -2.44,-4.426 -3.659,-8.85 -3.659,-13.276 0,-1.894 0.228,-3.72 0.676,-5.487 0.452,-1.76 1.151,-3.338 2.103,-4.739 0.946,-1.398 2.185,-2.502 3.722,-3.317 1.535,-0.812 3.387,-1.217 5.556,-1.217 4.063,0 7.856,1.081 11.376,3.249 3.522,2.166 6.682,4.83 9.48,7.991 h 0.271 c -0.181,-0.363 -0.314,-0.858 -0.404,-1.49 -0.09,-0.633 -0.137,-1.309 -0.137,-2.032 0,-2.164 0.789,-3.996 2.373,-5.486 1.575,-1.489 3.813,-2.232 6.704,-2.232 4.151,0 8.327,1.376 12.53,4.13 4.196,2.75 8.463,6.296 12.798,10.63 1.458,1.458 2.818,2.879 4.134,4.281 -0.092,-0.183 -0.19,-0.378 -0.275,-0.555 -1.851,-3.839 -2.774,-7.023 -2.774,-9.549 0,-5.417 3.066,-8.127 9.208,-8.127 4.334,0 8.512,1.312 12.528,3.929 4.02,2.618 8.646,6.591 13.884,11.921 0.922,0.919 1.855,1.914 2.791,2.95 -0.19,-0.381 -0.382,-0.764 -0.555,-1.124 -1.85,-3.839 -2.774,-7.023 -2.774,-9.549 0,-5.417 3.066,-8.127 9.208,-8.127 4.334,0 8.512,1.312 12.528,3.929 4.02,2.618 8.646,6.591 13.884,11.921 0.621,0.617 1.247,1.282 1.875,1.953 -0.067,-0.696 -0.113,-1.394 -0.113,-2.092 0,-4.873 1.488,-8.85 4.467,-11.92 2.979,-3.064 7.044,-4.601 12.192,-4.601 5.054,0 10.449,1.061 16.185,3.179 5.731,2.121 11.716,5.981 17.947,11.581 0.587,0.543 1.138,1.072 1.706,1.607 -2.802,-4.719 -5.586,-9.451 -8.342,-14.202 l 13.68,0.405 c 1.984,3.701 4.22,7.518 6.704,11.447 2.485,3.926 5.192,7.743 8.128,11.444 2.932,3.702 6.114,7.224 9.551,10.567 3.428,3.337 7.04,6.273 10.833,8.804 l 0.271,-0.272 c -1.355,-2.078 -2.031,-4.291 -2.031,-6.637 0,-3.701 1.037,-6.5 3.115,-8.397 2.077,-1.895 4.921,-2.846 8.532,-2.846 3.034,0 5.891,0.556 8.572,1.665 -0.298,-0.526 -0.631,-1.079 -0.919,-1.595 -1.941,-3.478 -3.542,-6.66 -4.807,-9.549 -1.266,-2.892 -1.898,-5.467 -1.898,-7.721 0,-2.351 0.656,-4.383 1.964,-6.096 1.309,-1.714 3.455,-2.574 6.433,-2.574 2.89,0 5.736,0.727 8.532,2.169 2.799,1.442 5.465,3.182 7.994,5.215 2.528,2.032 4.807,4.15 6.838,6.366 2.032,2.208 3.725,4.13 5.081,5.753 l 0.271,-0.267 c -1.988,-3.345 -4.154,-7.094 -6.504,-11.244 -2.346,-4.153 -4.854,-8.397 -7.515,-12.733 -2.667,-4.334 -5.554,-8.554 -8.668,-12.665 -3.117,-4.106 -6.432,-7.763 -9.957,-10.969 -3.522,-3.206 -7.315,-5.78 -11.378,-7.721 -4.064,-1.942 -8.399,-2.913 -13.004,-2.913 -4.33,0 -7.966,1.356 -10.902,4.065 -2.93,2.707 -4.401,6.455 -4.401,11.242 0,4.063 1.061,7.495 3.184,10.293 2.121,2.802 5.124,4.201 9.007,4.201 1.173,0 1.984,-0.047 2.436,-0.139 v 1.219 c -0.723,0.185 -1.645,0.318 -2.774,0.41 -1.129,0.09 -2.237,0.133 -3.321,0.133 -2.527,0 -4.987,-0.291 -7.381,-0.881 -2.393,-0.586 -4.516,-1.49 -6.366,-2.707 -1.85,-1.219 -3.34,-2.779 -4.472,-4.673 -1.128,-1.898 -1.69,-4.201 -1.69,-6.91 0,-3.338 0.722,-6.161 2.166,-8.464 1.445,-2.302 3.34,-4.154 5.69,-5.553 2.346,-1.398 5.058,-2.392 8.127,-2.982 3.069,-0.586 6.229,-0.881 9.479,-0.881 6.503,0 12.599,0.974 18.285,2.913 5.691,1.944 10.973,4.629 15.85,8.06 4.877,3.434 9.345,7.497 13.409,12.191 4.063,4.695 7.721,9.8 10.972,15.305 4.334,1.086 8.67,2.894 12.999,5.42 4.336,2.528 8.557,5.53 12.668,9.007 4.105,3.475 8.013,7.315 11.714,11.511 3.702,4.201 7.088,8.513 10.159,12.937 z"
             style="fill:#211915;fill-opacity:1;fill-rule:nonzero;stroke:none"
             id="path28" />
        </g>
      </g>
    </g>
    <text
       xml:space="preserve"
       transform="matrix(1,0,0,-1,959.1816,474.8818)"
       style="font-variant:normal;font-weight:normal;font-stretch:normal;font-size:12px;font-family:Helvetica;-inkscape-font-specification:Helvetica;writing-mode:lr-tb;fill:#000000;fill-opacity:1;fill-rule:nonzero;stroke:none"
       id="text32"><tspan
         x="0 3.336 6.6719999 15.336 24.672001 34.667999 38.004002 46.667999 56.004002 59.34 67.344002 76.68 86.015999 94.68 98.015999"
         y="0"
         sodipodi:role="line"
         id="tspan30">/ COMING SOON /</tspan></text>
  </g>
</svg>
