<svg xmlns="http://www.w3.org/2000/svg" viewBox="0 0 195.43 64.74">
  <defs><style>.cls-1{ fill:#fff; }</style></defs>
  <g id="Layer_2" data-name="Layer 2">
    <g id="Capa_1" data-name="Capa 1">
      <polyline class="cls-1" points="146.09 0.81 153.32 0.81 144.5 12.56 155.4 32.51 147.89 32.51 140.37 17.88 136.56 22.95 136.56 32.51 129.92 32.51 129.92 0.81 136.56 0.81 136.56 13.23"/>
      <path class="cls-1" d="M83.12,47.1a1.3,1.3,0,0,0-.73.52,1.42,1.42,0,0,0-.29.87,3,3,0,0,0,0,.42,1.12,1.12,0,0,0,.11.39c.28-.14.61-.29,1-.43a9,9,0,0,1,1.11-.36c.38-.1.77-.18,1.17-.25a7.59,7.59,0,0,1,1.14-.09,4.07,4.07,0,0,1,1.9.35,1.17,1.17,0,0,1,.67,1.12,1.29,1.29,0,0,1-.35.93,2.44,2.44,0,0,1-.85.57,4.55,4.55,0,0,1-1.07.29,7.55,7.55,0,0,1-1,.08,5.34,5.34,0,0,1-2-.34A4.06,4.06,0,0,1,82.42,50a8.24,8.24,0,0,0-1,.91,8.45,8.45,0,0,0-.9,1.15,6.28,6.28,0,0,0-.64,1.3,4.11,4.11,0,0,0-.24,1.36,3.2,3.2,0,0,0,.07.7A1.63,1.63,0,0,0,80,56a1.32,1.32,0,0,0,.46.38,1.42,1.42,0,0,0,.68.14,2.09,2.09,0,0,0,.74-.14,4,4,0,0,0,.78-.38,4.61,4.61,0,0,0,.68-.54,2.23,2.23,0,0,0,.45-.61l.33-.65a2.39,2.39,0,0,1,.35-.54,1.33,1.33,0,0,1,.49-.36,1.77,1.77,0,0,1,.73-.13c.33,0,.49.06.49.18a1.12,1.12,0,0,1-.15.49c-.1.18-.22.37-.34.56s-.26.38-.38.54a1.85,1.85,0,0,0-.25.43,6,6,0,0,1-.44.88,8.64,8.64,0,0,1-.72,1,8.31,8.31,0,0,1-1,1,6.82,6.82,0,0,1-1.22.89,7.28,7.28,0,0,1-1.45.62,5.48,5.48,0,0,1-1.69.25,4.92,4.92,0,0,1-1-.11,3,3,0,0,1-.93-.34,2.27,2.27,0,0,1-.67-.64,1.64,1.64,0,0,1-.27-1,1.75,1.75,0,0,1,.24-.92.81.81,0,0,1,.78-.4,1,1,0,0,1,.56.18.69.69,0,0,1,.25.62.61.61,0,0,1-.57.64c0,.08,0,.15,0,.23a.93.93,0,0,0,0,.24,1.21,1.21,0,0,0,.16.67,1,1,0,0,0,.4.37,1.62,1.62,0,0,0,.59.17,5.07,5.07,0,0,0,.68,0,3,3,0,0,0,1.58-.44,5.54,5.54,0,0,0,1.28-1.1,10.32,10.32,0,0,0,1-1.41c.32-.5.61-1,.88-1.37l0,0a7.72,7.72,0,0,1-.7.55,6.18,6.18,0,0,1-.79.45,5.08,5.08,0,0,1-.85.31,3.35,3.35,0,0,1-.89.12,2.09,2.09,0,0,1-1.64-.64A2.44,2.44,0,0,1,78,54.59a4,4,0,0,1,.36-1.68,5.9,5.9,0,0,1,.94-1.43,8.6,8.6,0,0,1,1.3-1.18A13.39,13.39,0,0,1,82,49.37L81.94,49a2.15,2.15,0,0,1,0-.4,1.69,1.69,0,0,1,.33-1.05,1.64,1.64,0,0,1,.89-.6Zm5,2.3a.93.93,0,0,0-.34-.76,2.15,2.15,0,0,0-1.3-.28,4.09,4.09,0,0,0-1,.13,7.72,7.72,0,0,0-1.1.34,8.47,8.47,0,0,0-1,.5,5.81,5.81,0,0,0-.82.57,3.61,3.61,0,0,0,1.22,1,3.52,3.52,0,0,0,1.57.33,3.92,3.92,0,0,0,1.11-.15,3.15,3.15,0,0,0,.89-.39,2,2,0,0,0,.59-.58,1.21,1.21,0,0,0,.22-.7"/>
      <path class="cls-1" d="M92,54.2l1.67-.09a8.05,8.05,0,0,1-.42.69c-.18.28-.38.57-.6.89l-.65,1c-.22.33-.42.66-.6,1a7.2,7.2,0,0,0-.44.88,2,2,0,0,0-.17.7.35.35,0,0,0,.4.4,2.09,2.09,0,0,0,1-.45A8.82,8.82,0,0,0,93.58,58c.2-.2.41-.42.62-.66s.41-.46.6-.69l.53-.65c.16-.2.29-.36.38-.49l.11.07c-.27.37-.59.79-1,1.24a16.33,16.33,0,0,1-1.31,1.45A9.83,9.83,0,0,1,92,59.53a2.73,2.73,0,0,1-1.49.48,1.09,1.09,0,0,1-.79-.26.85.85,0,0,1-.28-.65,1.77,1.77,0,0,1,0-.24.65.65,0,0,1,0-.18h0a5,5,0,0,1-1.12,1A2.51,2.51,0,0,1,87,60a1.34,1.34,0,0,1-.66-.14,1.28,1.28,0,0,1-.44-.39,1.63,1.63,0,0,1-.25-.57,2.27,2.27,0,0,1-.08-.65A3.24,3.24,0,0,1,86,56.69a6,6,0,0,1,1.09-1.42,5.73,5.73,0,0,1,1.47-1,3.58,3.58,0,0,1,1.55-.39,1.47,1.47,0,0,1,.89.24,1.67,1.67,0,0,1,.52.75Zm-4.82,4.11a2,2,0,0,0,.15.81.64.64,0,0,0,.65.35,1.39,1.39,0,0,0,.71-.28,4,4,0,0,0,.71-.67,7.09,7.09,0,0,0,.66-.89,8.81,8.81,0,0,0,.55-1,7.58,7.58,0,0,0,.37-.94,2.56,2.56,0,0,0,.13-.74,1.2,1.2,0,0,0-.16-.68.68.68,0,0,0-.62-.24,1.45,1.45,0,0,0-.75.23,3.52,3.52,0,0,0-.72.59,7.08,7.08,0,0,0-.66.83,6.33,6.33,0,0,0-.54.94,5.9,5.9,0,0,0-.35.92,2.63,2.63,0,0,0-.13.76"/>
      <path class="cls-1" d="M101.28,48.53l-5,7.9c-.41.68-.75,1.24-1,1.68A2.4,2.4,0,0,0,95,59.2c0,.29.12.43.35.43a1.87,1.87,0,0,0,.92-.37,8,8,0,0,0,1.23-1c.41-.4.81-.84,1.21-1.3s.78-.93,1.15-1.43l.15,0-.44.58-.52.65-.56.66c-.19.22-.37.42-.55.6a10.22,10.22,0,0,1-1.65,1.41,2.69,2.69,0,0,1-1.48.47c-.73,0-1.1-.32-1.1-1A2.79,2.79,0,0,1,94,57.82c.22-.45.56-1.06,1-1.84l4.48-7.35Z"/>
      <path class="cls-1" d="M105.44,48.53l-5,7.9q-.63,1-1,1.68a2.4,2.4,0,0,0-.37,1.09c0,.29.11.43.35.43a1.87,1.87,0,0,0,.92-.37,8,8,0,0,0,1.23-1c.41-.4.81-.84,1.21-1.3s.78-.93,1.15-1.43l.15,0-.44.58-.53.65-.55.66c-.19.22-.37.42-.55.6a10.66,10.66,0,0,1-1.65,1.41,2.7,2.7,0,0,1-1.49.47c-.72,0-1.09-.32-1.09-1a2.79,2.79,0,0,1,.33-1.14c.22-.45.56-1.06,1-1.84l4.48-7.35Z"/>
      <path class="cls-1" d="M110.71,55.55c-.33.45-.69.9-1.07,1.33a19,19,0,0,1-1.35,1.39,6.86,6.86,0,0,1-2.13,1.37,5.56,5.56,0,0,1-1.92.37,1.86,1.86,0,0,1-2-1.95,2.88,2.88,0,0,1,.47-1.53,5.74,5.74,0,0,1,1.17-1.35,6.69,6.69,0,0,1,1.55-1,3.94,3.94,0,0,1,1.6-.37,2,2,0,0,1,1.08.26.88.88,0,0,1,.38.75,1.13,1.13,0,0,1-.26.71,2.84,2.84,0,0,1-.69.57,4.83,4.83,0,0,1-.94.46c-.34.12-.69.24-1,.33s-.67.18-1,.24l-.73.16a2.17,2.17,0,0,0-.08.58,1.63,1.63,0,0,0,.38,1.13,1.41,1.41,0,0,0,1.08.43,3.33,3.33,0,0,0,1.48-.4,6.9,6.9,0,0,0,1.63-1.17c.42-.4.82-.82,1.21-1.25s.72-.84,1-1.21Zm-3.48-1.09a.38.38,0,0,0-.12-.32.47.47,0,0,0-.32-.1,1.48,1.48,0,0,0-.86.34,4.56,4.56,0,0,0-.88.83,7.85,7.85,0,0,0-.72,1,3.57,3.57,0,0,0-.41.94,4.61,4.61,0,0,0,1.25-.42,5,5,0,0,0,1-.68,3.38,3.38,0,0,0,.73-.8,1.52,1.52,0,0,0,.28-.81"/>
      <path class="cls-1" d="M107.5,59.76c.54-.94,1.1-1.88,1.66-2.81s1.12-1.88,1.68-2.84l1.83-.07-2.12,3,0,0a13.09,13.09,0,0,1,1.09-1.21c.31-.31.59-.56.82-.75a7.21,7.21,0,0,1,.6-.44,2.63,2.63,0,0,0,.35-.26,2.63,2.63,0,0,1,.33-.29,1.5,1.5,0,0,1,.36-.16,3.14,3.14,0,0,1,.51-.07l.74,0a9.23,9.23,0,0,0-.56.91,2.09,2.09,0,0,0-.26,1,.61.61,0,0,0,.7.69,1.21,1.21,0,0,0,.44-.1,1.91,1.91,0,0,0,.41-.24l.37-.31.32-.32.06.08a3.73,3.73,0,0,1-1.06.92,2.67,2.67,0,0,1-1.33.35,1.4,1.4,0,0,1-1-.34,1.25,1.25,0,0,1-.37-1,1.43,1.43,0,0,1,.24-.79l0,0a10.23,10.23,0,0,0-1.28,1A13.39,13.39,0,0,0,110.88,57a15.13,15.13,0,0,0-1,1.35c-.3.47-.56.92-.8,1.36Z"/>
      <path class="cls-1" d="M112.14,61l-.29,0a1.27,1.27,0,0,0-1.07.5,2,2,0,0,0-.37,1.22,1.7,1.7,0,0,0,.52,1.33,1.82,1.82,0,0,0,1.29.48,3.5,3.5,0,0,0,1.54-.34,5.67,5.67,0,0,0,1.35-.92,9.28,9.28,0,0,0,1.18-1.3c.37-.49.71-1,1-1.5s.61-1,.89-1.51.53-.94.77-1.33l0,0c-.16.19-.36.42-.6.68a8.49,8.49,0,0,1-.82.75,5.65,5.65,0,0,1-.94.62,2.2,2.2,0,0,1-1,.26.9.9,0,0,1-.77-.31,1.17,1.17,0,0,1-.23-.72,2.27,2.27,0,0,1,.22-.91c.15-.35.34-.72.57-1.14s.49-.84.78-1.3.58-.94.87-1.43l1.7-.07q-1.35,2.1-2.1,3.33a4.21,4.21,0,0,0-.76,1.73.46.46,0,0,0,.12.31.42.42,0,0,0,.3.12,1.53,1.53,0,0,0,.74-.29,7,7,0,0,0,1-.8,13.55,13.55,0,0,0,1-1.15,13.37,13.37,0,0,0,.93-1.34c.23-.38.44-.74.62-1.06a5.84,5.84,0,0,0,.4-.78l1.58-.07c-.58,1-1.14,2-1.68,3s-1.11,2-1.69,2.95a6.27,6.27,0,0,0,1.52-.7,11.39,11.39,0,0,0,1.46-1.1,16.32,16.32,0,0,0,1.3-1.33c.4-.48.76-.94,1.08-1.39l.13.12a18.85,18.85,0,0,1-1.21,1.53,13.81,13.81,0,0,1-1.39,1.37,10,10,0,0,1-1.5,1.06,5.83,5.83,0,0,1-1.54.65,12.4,12.4,0,0,1-1.3,1.81,8.69,8.69,0,0,1-1.59,1.45,7.55,7.55,0,0,1-1.88,1,6.63,6.63,0,0,1-2.17.35,5.91,5.91,0,0,1-1.12-.11,3.13,3.13,0,0,1-1-.35,2.14,2.14,0,0,1-.68-.66,1.86,1.86,0,0,1-.25-1,1.51,1.51,0,0,1,.2-.82,1.67,1.67,0,0,1,.53-.56,2.54,2.54,0,0,1,.75-.32,3.71,3.71,0,0,1,.88-.1h.39l.33.05Z"/>
      <path class="cls-1" d="M60.52,25H49.38l-2.44,7.56H40.29l11-31.7h7.8l11,31.7H62.91Zm-9.71-5.12h8.3L55.18,7.4h-.4Z"/>
      <path class="cls-1" d="M100.56,33.32a16,16,0,0,1-6.21-1.15,12.75,12.75,0,0,1-4.68-3.31,14.74,14.74,0,0,1-3-5.25,21.85,21.85,0,0,1-1-7,21.74,21.74,0,0,1,1-6.95,14.78,14.78,0,0,1,3-5.24,12.75,12.75,0,0,1,4.68-3.31A16,16,0,0,1,100.56,0a15.31,15.31,0,0,1,5.25.89,13.61,13.61,0,0,1,4.26,2.47A12.71,12.71,0,0,1,113,7.12a12,12,0,0,1,1.3,4.76h-6.46A7.87,7.87,0,0,0,107,9.4a6.7,6.7,0,0,0-1.59-1.91,7.1,7.1,0,0,0-2.19-1.22,8.1,8.1,0,0,0-2.63-.43,7.35,7.35,0,0,0-3.36.75,7.1,7.1,0,0,0-2.55,2.15A10.38,10.38,0,0,0,93,12.15a16.79,16.79,0,0,0-.56,4.5A16.92,16.92,0,0,0,93,21.16a10.28,10.28,0,0,0,1.62,3.41,7.3,7.3,0,0,0,2.55,2.15,7.41,7.41,0,0,0,3.38.76,8.47,8.47,0,0,0,2.66-.41,7.15,7.15,0,0,0,2.17-1.15,6.65,6.65,0,0,0,1.58-1.8,6.93,6.93,0,0,0,.88-2.38h6.46a12,12,0,0,1-4.23,8.36,13.13,13.13,0,0,1-4.25,2.37,15.86,15.86,0,0,1-5.29.85"/>
      <polygon class="cls-1" points="170.96 28.03 186.9 6.88 186.9 6.48 171.33 6.48 171.33 0.81 194.99 0.81 194.99 5.27 179.08 26.44 179.08 26.84 195.43 26.84 195.43 32.51 170.96 32.51 170.96 28.03"/>
      <path class="cls-1" d="M17.88,20a9.16,9.16,0,0,0,2.44-1.45,8.55,8.55,0,0,0,1.81-2.08,9.41,9.41,0,0,0,1.12-2.57A10.76,10.76,0,0,0,23.64,11a11,11,0,0,0-.78-4.25,8.84,8.84,0,0,0-2.23-3.19,9.76,9.76,0,0,0-3.54-2,14.64,14.64,0,0,0-4.7-.71H4.55L2.69,6.17h8.78a7.1,7.1,0,0,1,2.23.34,4.7,4.7,0,0,1,1.69,1A4.33,4.33,0,0,1,16.45,9a5.28,5.28,0,0,1,.38,2,4.6,4.6,0,0,1-1.39,3.58,5.54,5.54,0,0,1-3.91,1.27H5.73L0,32.51H5.07L8.92,21h2.86l5.91,11.49h6.87Z"/>
    </g>
  </g>
</svg>