<svg xmlns="http://www.w3.org/2000/svg" viewBox="0 0 71.31 71.31">
  <defs>
    <style>.cls-1{ fill:#fff; }</style>
  </defs>
  <g id="Layer_2" data-name="Layer 2">
    <g id="Capa_1" data-name="Capa 1">
      <!-- <rect width="71.31" height="71.31"/> -->
      <path class="cls-1" d="M23.22,50a.92.92,0,0,0-.54.37,1,1,0,0,0-.21.63c0,.1,0,.2,0,.31a.83.83,0,0,0,.08.28,7.47,7.47,0,0,1,.69-.31,7,7,0,0,1,.81-.26,6.11,6.11,0,0,1,.85-.18,4.7,4.7,0,0,1,.82-.07,3,3,0,0,1,1.38.25.86.86,0,0,1,.48.82.89.89,0,0,1-.25.66,1.75,1.75,0,0,1-.61.42,3.46,3.46,0,0,1-.78.21,4.81,4.81,0,0,1-.71.05A3.91,3.91,0,0,1,23.83,53a2.77,2.77,0,0,1-1.12-.85,7.19,7.19,0,0,0-.72.66,6,6,0,0,0-.66.84,4.1,4.1,0,0,0-.46.94,2.87,2.87,0,0,0-.18,1,2.1,2.1,0,0,0,.06.51,1,1,0,0,0,.18.41.91.91,0,0,0,.33.28,1,1,0,0,0,.49.1,1.59,1.59,0,0,0,.54-.1,3.25,3.25,0,0,0,.56-.28,3.92,3.92,0,0,0,.5-.39,1.59,1.59,0,0,0,.32-.44l.24-.47a1.56,1.56,0,0,1,.26-.39.83.83,0,0,1,.35-.26,1.15,1.15,0,0,1,.52-.1c.24,0,.36,0,.36.13a.73.73,0,0,1-.11.36,3.77,3.77,0,0,1-.25.41l-.27.39a1.15,1.15,0,0,0-.18.31,4.69,4.69,0,0,1-.32.63,5.56,5.56,0,0,1-.52.74,5.94,5.94,0,0,1-.7.73,5.31,5.31,0,0,1-.89.64,4.49,4.49,0,0,1-1.05.45,4,4,0,0,1-1.22.18,3.69,3.69,0,0,1-.72-.08,2.07,2.07,0,0,1-.67-.25,1.44,1.44,0,0,1-.49-.46,1.27,1.27,0,0,1-.19-.69,1.3,1.3,0,0,1,.17-.66.58.58,0,0,1,.56-.29.67.67,0,0,1,.41.13.48.48,0,0,1,.19.45c0,.25-.14.4-.42.46l0,.17a.88.88,0,0,0,0,.17,1,1,0,0,0,.11.48.8.8,0,0,0,.3.28,1.29,1.29,0,0,0,.42.12,4.07,4.07,0,0,0,.5,0,2.13,2.13,0,0,0,1.14-.32,4.39,4.39,0,0,0,.93-.8,8.44,8.44,0,0,0,.76-1l.63-1,0,0a4,4,0,0,1-.51.39,3.25,3.25,0,0,1-.57.33,3.16,3.16,0,0,1-.61.22,2.37,2.37,0,0,1-.65.09,1.5,1.5,0,0,1-1.18-.46,1.75,1.75,0,0,1-.42-1.21,2.93,2.93,0,0,1,.26-1.22,4.09,4.09,0,0,1,.68-1,5.93,5.93,0,0,1,.94-.86,9.14,9.14,0,0,1,1-.67c0-.09-.05-.17-.07-.25a1.12,1.12,0,0,1,0-.29,1.23,1.23,0,0,1,.24-.76,1.17,1.17,0,0,1,.65-.43Zm3.64,1.66a.69.69,0,0,0-.25-.55,1.54,1.54,0,0,0-.94-.2A3.22,3.22,0,0,0,25,51a5.24,5.24,0,0,0-.8.25,4.71,4.71,0,0,0-.75.36,3.29,3.29,0,0,0-.6.41,2.58,2.58,0,0,0,.89.72,2.51,2.51,0,0,0,1.13.24,2.86,2.86,0,0,0,.8-.11,2.28,2.28,0,0,0,.65-.28,1.44,1.44,0,0,0,.43-.42,1,1,0,0,0,.16-.51"/>
      <path class="cls-1" d="M29.61,55.17l1.21-.07a4.37,4.37,0,0,1-.3.5l-.43.64c-.16.23-.31.47-.47.71s-.31.48-.44.71a5.44,5.44,0,0,0-.32.64,1.42,1.42,0,0,0-.12.51.26.26,0,0,0,.29.29,1.5,1.5,0,0,0,.76-.33,6.15,6.15,0,0,0,1-.86l.44-.47c.16-.17.3-.34.44-.51l.39-.47.27-.35.09,0-.7.9a12.42,12.42,0,0,1-1,1,6.65,6.65,0,0,1-1.09.91,1.94,1.94,0,0,1-1.08.36.86.86,0,0,1-.58-.19.65.65,0,0,1-.2-.47,1,1,0,0,1,0-.18.4.4,0,0,1,0-.13h0a3.8,3.8,0,0,1-.81.69,1.89,1.89,0,0,1-1,.28,1,1,0,0,1-.47-.11.8.8,0,0,1-.32-.28,1,1,0,0,1-.18-.41,1.84,1.84,0,0,1-.06-.47A2.33,2.33,0,0,1,25.32,57a4.19,4.19,0,0,1,1.86-1.77,2.56,2.56,0,0,1,1.12-.29,1,1,0,0,1,.64.18,1.27,1.27,0,0,1,.38.54Zm-3.49,3a1.32,1.32,0,0,0,.12.59.45.45,0,0,0,.47.25,1,1,0,0,0,.51-.2,3.29,3.29,0,0,0,.52-.48,6.8,6.8,0,0,0,.47-.65c.15-.24.28-.47.4-.71a4.9,4.9,0,0,0,.26-.68,1.84,1.84,0,0,0,.1-.55.92.92,0,0,0-.11-.48.51.51,0,0,0-.46-.18,1.15,1.15,0,0,0-.54.16,2.59,2.59,0,0,0-.52.44,4.1,4.1,0,0,0-.48.59,5.17,5.17,0,0,0-.39.68,6.31,6.31,0,0,0-.25.67,1.84,1.84,0,0,0-.1.55"/>
      <path class="cls-1" d="M36.37,51.06l-3.59,5.72c-.31.49-.55.9-.73,1.22a1.81,1.81,0,0,0-.26.78c0,.21.08.32.25.32a1.36,1.36,0,0,0,.67-.27,6,6,0,0,0,.89-.74c.3-.3.59-.61.87-.94s.57-.68.84-1l.11,0-.32.42c-.12.16-.25.32-.38.47l-.4.48c-.14.16-.27.31-.4.44a7.42,7.42,0,0,1-1.2,1,1.88,1.88,0,0,1-1.07.34c-.53,0-.79-.24-.79-.7a2,2,0,0,1,.24-.82c.15-.33.4-.77.73-1.33l3.25-5.33Z"/>
      <path class="cls-1" d="M39.38,51.06l-3.59,5.72c-.3.49-.55.9-.72,1.22a1.72,1.72,0,0,0-.27.78c0,.21.08.32.25.32a1.36,1.36,0,0,0,.67-.27,5.52,5.52,0,0,0,.89-.74c.3-.3.59-.61.88-.94s.56-.68.83-1l.11,0-.32.42c-.12.16-.25.32-.38.47l-.4.48c-.14.16-.27.31-.4.44a7.87,7.87,0,0,1-1.19,1,1.94,1.94,0,0,1-1.08.34c-.53,0-.79-.24-.79-.7a2,2,0,0,1,.24-.82c.16-.33.4-.77.74-1.33l3.24-5.33Z"/>
      <path class="cls-1" d="M43.2,56.15c-.25.32-.5.64-.78,1a11.33,11.33,0,0,1-1,1,5,5,0,0,1-1.54,1,3.87,3.87,0,0,1-1.39.28,1.39,1.39,0,0,1-1-.4,1.41,1.41,0,0,1-.38-1,2.08,2.08,0,0,1,.34-1.11,3.86,3.86,0,0,1,.84-1,4.73,4.73,0,0,1,1.13-.7,2.82,2.82,0,0,1,1.15-.27,1.4,1.4,0,0,1,.78.19.62.62,0,0,1,.28.55.79.79,0,0,1-.19.51,2.29,2.29,0,0,1-.49.42,4.27,4.27,0,0,1-.68.32l-.75.25-.7.17-.54.12a1.62,1.62,0,0,0-.06.41,1.21,1.21,0,0,0,.28.82,1,1,0,0,0,.78.31,2.37,2.37,0,0,0,1.08-.29,5,5,0,0,0,1.18-.85c.3-.28.59-.59.87-.9s.52-.61.73-.88Zm-2.53-.8a.29.29,0,0,0-.09-.23.31.31,0,0,0-.22-.07,1,1,0,0,0-.63.25,3,3,0,0,0-.63.6,4.76,4.76,0,0,0-.53.74,2.46,2.46,0,0,0-.29.68,3.55,3.55,0,0,0,.9-.31,3.82,3.82,0,0,0,.76-.49,2.2,2.2,0,0,0,.53-.58,1,1,0,0,0,.2-.59"/>
      <path class="cls-1" d="M40.87,59.19c.39-.68.8-1.36,1.2-2s.81-1.36,1.22-2.06l1.32-.05-1.53,2.16,0,0a9.6,9.6,0,0,1,.79-.88q.34-.33.6-.54a3.6,3.6,0,0,1,.43-.32,1.58,1.58,0,0,0,.25-.19,2,2,0,0,1,.24-.21.89.89,0,0,1,.26-.11,1.27,1.27,0,0,1,.37-.05l.54,0a7.31,7.31,0,0,0-.41.66,1.56,1.56,0,0,0-.18.74.44.44,0,0,0,.5.5,1,1,0,0,0,.32-.07,1.75,1.75,0,0,0,.29-.18,2.88,2.88,0,0,0,.27-.22l.23-.23,0,.06a2.7,2.7,0,0,1-.77.66,1.87,1.87,0,0,1-1,.26,1,1,0,0,1-.74-.25.91.91,0,0,1-.26-.72,1,1,0,0,1,.17-.57l0,0a6.64,6.64,0,0,0-.93.75,8.75,8.75,0,0,0-.82.91c-.25.32-.49.65-.7,1s-.41.67-.58,1Z"/>
      <path class="cls-1" d="M44.23,60.11H44a.91.91,0,0,0-.77.36,1.36,1.36,0,0,0-.28.88,1.26,1.26,0,0,0,.38,1,1.35,1.35,0,0,0,.94.35,2.61,2.61,0,0,0,1.11-.25,4,4,0,0,0,1-.67,6.54,6.54,0,0,0,.86-.94c.26-.35.51-.71.74-1.08s.44-.74.64-1.1.39-.68.56-1l0,0c-.12.14-.26.31-.44.5a5,5,0,0,1-.58.54,3.71,3.71,0,0,1-.69.45,1.5,1.5,0,0,1-.73.19.66.66,0,0,1-.55-.22.8.8,0,0,1-.17-.53,1.66,1.66,0,0,1,.16-.66c.11-.25.25-.52.41-.82s.36-.61.57-.95.42-.67.62-1L49,55.05l-1.53,2.41a3.05,3.05,0,0,0-.54,1.25.3.3,0,0,0,.09.23.26.26,0,0,0,.21.09,1,1,0,0,0,.53-.22,4.62,4.62,0,0,0,.7-.57,10.53,10.53,0,0,0,.74-.83c.24-.32.47-.64.67-1s.32-.54.45-.77a5.15,5.15,0,0,0,.29-.57l1.14-.05c-.42.72-.82,1.44-1.21,2.16s-.8,1.43-1.23,2.13a4.53,4.53,0,0,0,1.11-.5,8.91,8.91,0,0,0,2-1.77c.29-.34.55-.67.79-1l.09.09a12.84,12.84,0,0,1-.87,1.11,9.29,9.29,0,0,1-1,1,7.27,7.27,0,0,1-1.09.78,4,4,0,0,1-1.11.46,9,9,0,0,1-1,1.32,6,6,0,0,1-1.15,1,5.15,5.15,0,0,1-1.36.7,5,5,0,0,1-1.57.25,4.28,4.28,0,0,1-.81-.08,2.15,2.15,0,0,1-.7-.25,1.6,1.6,0,0,1-.49-.48,1.39,1.39,0,0,1-.18-.73,1.2,1.2,0,0,1,.14-.59,1.24,1.24,0,0,1,.39-.4,1.65,1.65,0,0,1,.54-.24,2.73,2.73,0,0,1,.64-.07H44l.24,0Z"/>
      <path class="cls-1" d="M42.25,31.54A9.73,9.73,0,0,0,44.88,30a9.47,9.47,0,0,0,1.95-2.24A10.44,10.44,0,0,0,48,25a11.61,11.61,0,0,0,.42-3.14,11.87,11.87,0,0,0-.85-4.58,9.45,9.45,0,0,0-2.4-3.44,10.48,10.48,0,0,0-3.81-2.18,15.7,15.7,0,0,0-5.07-.76H27.88l-2,5.78h9.46a7.56,7.56,0,0,1,2.4.36,5,5,0,0,1,1.82,1.06,4.58,4.58,0,0,1,1.15,1.67,5.66,5.66,0,0,1,.4,2.19,5,5,0,0,1-1.49,3.86,6,6,0,0,1-4.21,1.37H29.15L23,45h5.47l4.15-12.39h3.08L42,45h7.41Z"/>
    </g>
  </g>
</svg>